<?xml version="1.0" ?><!DOCTYPE svg  PUBLIC '-//W3C//DTD SVG 1.1//EN'  'http://www.w3.org/Graphics/SVG/1.1/DTD/svg11.dtd'><svg height="100px" id="Слой_21" style="enable-background:new 0 0 100.001 100;" version="1.1" viewBox="0 0 100.001 100" width="100.001px" xml:space="preserve" xmlns="http://www.w3.org/2000/svg" xmlns:xlink="http://www.w3.org/1999/xlink"><g><g><g><linearGradient gradientUnits="userSpaceOnUse" id="SVGID_1_" x1="15.6958" x2="40.2114" y1="15.6616" y2="15.6616"><stop offset="0.4" style="stop-color:#FF9650"/><stop offset="0.6295" style="stop-color:#FF934D"/><stop offset="0.7675" style="stop-color:#FF8B45"/><stop offset="0.8813" style="stop-color:#FF7D37"/><stop offset="0.9814" style="stop-color:#FF6923"/><stop offset="1" style="stop-color:#FF641E"/></linearGradient><path d="M15.696,5.893v19.538c6.329,0,15.11,0,24.514,0l0.002-19.538      C30.806,5.893,22.024,5.893,15.696,5.893z" style="fill:url(#SVGID_1_);"/><linearGradient gradientUnits="userSpaceOnUse" id="SVGID_2_" x1="84.3047" x2="59.8047" y1="15.6616" y2="15.6616"><stop offset="0.4" style="stop-color:#FF825A"/><stop offset="0.6164" style="stop-color:#FF7F58"/><stop offset="0.7466" style="stop-color:#FF7751"/><stop offset="0.8539" style="stop-color:#FF6945"/><stop offset="0.9482" style="stop-color:#FF5534"/><stop offset="1" style="stop-color:#FF4628"/></linearGradient><path d="M59.805,25.431c9.413,0,18.192,0,24.5,0V5.893c-6.308,0-15.087,0-24.5,0V25.431z" style="fill:url(#SVGID_2_);"/></g><linearGradient gradientUnits="userSpaceOnUse" id="SVGID_3_" x1="50.0034" x2="50.0034" y1="94.1074" y2="25.4312"><stop offset="0.4" style="stop-color:#FF0028"/><stop offset="0.6574" style="stop-color:#FC0027"/><stop offset="0.8122" style="stop-color:#F40025"/><stop offset="0.9395" style="stop-color:#E60021"/><stop offset="1" style="stop-color:#DC001E"/></linearGradient><path d="M40.201,94.107h19.604V25.431c-6.432,0-13.159,0-19.595,0L40.201,94.107z" style="fill:url(#SVGID_3_);"/><linearGradient gradientUnits="userSpaceOnUse" id="SVGID_4_" x1="50.0068" x2="50.0068" y1="5.8926" y2="25.4307"><stop offset="0" style="stop-color:#DC0014"/><stop offset="1" style="stop-color:#960000"/></linearGradient><path d="M40.211,5.893l-0.002,19.538c6.436,0,13.164,0,19.595,0V5.893     C53.373,5.893,46.647,5.893,40.211,5.893z" style="fill:url(#SVGID_4_);"/></g></g></svg>