<?xml version="1.0" ?><svg id="Layer_1" style="enable-background:new 0 0 300 300;" version="1.1" viewBox="0 0 300 300" xml:space="preserve" xmlns="http://www.w3.org/2000/svg" xmlns:xlink="http://www.w3.org/1999/xlink"><style type="text/css">
	.st0{fill:#CD6228;}
	.st1{fill:#D68128;}
	.st2{fill:#F58020;}
	.st3{fill:none;}
	.st4{fill:#68401C;}
	.st5{fill:#A66427;}
	.st6{fill:#684532;}
	.st7{fill:#D74971;}
	.st8{fill:#EDDED1;}
</style><g><g><path class="st0" d="M40,81.1c-3.1,0.8-3.5,9.2-3.4,12.3c1.6-0.5,3.7-0.9,4.8-1.2c1.5-2.2,3.3-3.9,4.9-4.6    C46,86.3,43.3,80.2,40,81.1z"/></g><g><path class="st0" d="M118.4,200.4c-0.3,0.7-0.8,0.8-1.1,0.8l-2.5-0.1c-0.4,0.2-2.8,1.3-3.3,4.8c-0.1,1.1,0.9,1.9,1.9,2.4    c3.6,2,11.6,2.8,15.4-0.2c5-4,4.4-17.8,2-22.6c-2.4-4.8-6.4-24.2-6.9-27c-3.1,0.7-5.9,1.3-8.6,1.3c-8.5,0.2-19.1-2.9-22.2-4.1    c3.1,4.2,16.9,23.3,20.3,27.3C117,186.9,119.7,197.6,118.4,200.4z"/></g><g><g><path class="st0" d="M268.1,172c0,0-4.4-7-9.6-11.9c0,0,0,0,0,0c-1.2-1.1-2.9-5.6-4.2-7.3c-0.4-0.6-0.9-1.8-1.2-2.4     c-0.7-1.1,0.3,1-0.7-0.9c0,0-2.8-5.8-2.8-5.8c0,0-2-3.7-2-3.7c-2.5-5.2-3.5-7.5-5.3-11.5c0,0,0,0-0.1,0l-2.9-6l-3-7.1     c-0.3,3.9-1.5,19-7.1,30.9c-2.2,4.6-3.5,10.8-4.4,17.2c1.1,0.8,7.4,5.4,10.2,7l5.7,3.3l17.7,10.1c3.2,1.6,8.7,13.1,8.9,13.6     c0,0,0,0.1,0,0.1c0,0.2,0.5,3.8-5.8,7c-1.4,0.7-1.7,3.2-1.2,5.1c0.3,1.4,1,2.3,1.5,2.3c0.3,0,0.7,0,1.4,0.1     c3.3,0.3,12.2,1,16-2.3c1.1-0.9,1.7-2.1,1.7-3.6C281.4,197.6,268.2,172.2,268.1,172z"/></g></g><g><g><path class="st1" d="M5.1,125.3v-0.4c0,0.1-0.1,0.1-0.1,0.2C5,125.1,5.1,125.2,5.1,125.3z"/></g><g><g><path class="st1" d="M152.6,112.8c-0.5,6,0.5,11.5,7.7,25.8c1-3.8,4.5-18,2.8-23.1c-1.1-3.2-4.2-7.2-7.2-11.2      c-2.5-3.3-4.9-6.4-6-8.8c0.1,0.7,0.3,1.5,0.5,2.3C150.4,98.1,153.1,106.6,152.6,112.8z"/></g></g><g><g><path class="st2" d="M238.7,121.8l2.7,5.9v0c1.8,3.9,4.4,9.6,6.9,14.7c3.9-1.2,6.9-4.4,9-9.7c-1.2-3.5-2.6-7.5-4.2-12.2      l-1.5-4.5L249,109C247.4,114.4,244.4,120.4,238.7,121.8z"/></g></g><g><g><path class="st2" d="M266.6,164.1c5.5,2,11.7,1.5,16.9-1.5c0.2-3.8-1.5-8.2-3.1-11.4c-2,1.2-4.5,1.7-8.1,1.8l0,0c0,0,0,0,0,0      c0,0,0,0-0.1,0l-3.5-0.5c-0.9,3.7-2.8,7-5.7,9.8L266.6,164.1z"/></g></g><g><g><path class="st2" d="M248.6,143.1l2.4,4.9c1,1.9,1.8,3.4,2.5,4.5c2.5,4.1,5.4,7.3,8.9,9.5c2.9-2.7,4.8-5.9,5.7-9.6      c-2.8-1.3-5-4.6-7.8-11.6c0,0,0,0,0,0c0,0,0,0,0,0l-2.6-7C255.5,138.6,252.4,141.9,248.6,143.1z"/></g></g></g><g><g><path class="st3" d="M156.5,103.8c-2.7-3.5-5.3-6.8-6.1-9.3c-0.6-1.8-0.8-2.1-1.3-2c-0.4,0.1-0.6,0.2,0.5,5.3     c0,0.1,2.7,8.8,2.2,14.8c-0.5,6.3,0.6,12,8.2,27.1c0.1,0.1,0.2,0.2,0.3,0.2c0,0,0,0,0,0c0.2,0,0.3-0.1,0.3-0.3     c0.2-0.7,5.1-18.4,3.1-24.5C162.7,111.9,159.5,107.8,156.5,103.8z"/></g><g><path class="st2" d="M216.5,89l-0.9-0.2l-7.8-1.1c-4.4-0.5-9.1-0.7-14-0.8l-0.7,0c0,0,0,0,0,0c-12.1-0.1-22.4,1.1-22.5,1.1l0,0     l0,0l-0.1,0l-0.1,0l-0.8,0.1l-6.1,0.5l-10.4,0.9c-6.9,0.6-13.2,0.7-19.3,0.3l-0.8-0.1l-5.4-0.5c0,0,0,0,0,0c0,0,0,0,0,0     c-4.5-0.5-8.7-1.3-13.2-2l-0.9-0.2c-1-0.2-2.4-0.3-4.1-0.4l-1.3,0c-2.7-0.1-6.1,0-10.2,0.1l-0.9,0l-7.7,0.4l0,0     c-5.8,0.3-12.6,0.8-20.2,1.4l-2.9,0.2l-0.9,0.1c-2.1,0.2-4.6,0.6-7.1,1c-1.9,0.3-3.8,0.6-5.2,0.8l-0.8,0     c-0.1-0.1-0.1-0.2-0.1-0.3c0-0.1,0-0.1,0-0.1c-0.2-0.7-0.4-1.2-0.4-1.4c-0.7-1.4-1.7-2.2-3-2.4c-0.9-0.1-1.8,0-2.8,0.4     c0,0,0,0,0,0c0,0,0,0,0,0c-1.6,0.7-3.2,2.1-4.8,4.4c-0.1,0.1-0.1,0.1-0.2,0.2c-7.7,2-19.2,6.3-20.3,8.7     c-3.7,7.6-14,22.4-15.7,24.8v0.4c0.3,0.6,2.1,2.7,3.3,4.1c1.1,0.1,5.4-0.1,8.7-2.9c3.8-3.2,11.9-1.6,18.5,0.2     c6,1.6,19.1,0.3,22.8,0l4.7,11.6l2.1,2c0,7.9,0.2,14.8,0.2,14.9c0,0,0,0.1,0,0.1c0,0.1-2.5,6.4-5.7,13.3c-2,4.2-4.9,9.7-7.1,12.9     c-6.2,8.7-6.6,12.8-7.1,21.8c-0.2,3.4,0.4,5.8,1.8,7.2c1.8,1.9,4.9,2.1,8.1,2.1c4.4,0,6.2-10.1,7-13.9c0.2-0.9,0.3-1.5,0.4-1.8     c0.6-1.7,4.8-7.9,12.4-15c1.7-1.6,3.9-3.9,6.3-6.7v0l6.2-7.5c4.1-5.2,7.3-9.6,7.5-9.8c0,0,0,0,0,0l0.9,0c2,0.9,11.4,4.6,20.6,4.3     c3.7-0.1,7.9-1.1,12.3-2.1c0.8-0.2,1.6-0.4,2.4-0.5c0,0,0,0,0,0c0,0,0,0,0,0l9.4-1.6l0.9-0.2c0.3,0,0.6-0.1,0.9-0.1     c13.8-1.2,23.3-5.5,30.2-8.7c5-2.3,8.6-3.9,11.4-3.3c3.6,0.7,5.1,6.8,6.2,12.2c0,0,0,0,0,0l1,4.3c0,0,0,0,0,0     c1,3.5,2.1,5.7,3.7,6.9c0.3,0.2,0.5,0.4,0.8,0.7l0.5,0.6l3.7,4.6c0,0,0,0,0,0c0,0,0,0,0,0c0.3,0.5,0.6,1,0.9,1.5     c0.8,1.4,1.7,3,2.6,5l1.2,2.6c0,0,0,0,0,0l0,0l0.8,1.8c1.1,2.5,2.2,4.9,3.4,7c4.1,7.8,0,16.2,0,16.2c-0.1,0.2-0.3,0.3-0.5,0.2     c0,0-2.5-0.9-7.4,1.5c-1.9,1-2.3,2.5-1.2,4.8c0.9,1.9,3,3.2,5.3,3.2h10.6c4.3,0,5.7-2.7,5.8-2.9c0-0.1,4.6-8.8,5.1-17.3     c0.3-5.7-0.9-8.2-1.7-10.1c-0.5-1-0.8-1.8-0.8-2.7c0-0.2,0-0.7,0-1.2c-0.1-1.6-0.1-4.2-0.1-7.5c0,0,0,0,0,0c0,0,0,0,0,0l0.5-8.7     c0,0,0,0,0,0c0.8-8.6,2.6-15.9,5.3-21.6c7.1-15,7.1-27.5,7.1-27.7c0-0.2,0.1-0.3,0.3-0.4c0.2,0,0.4,0.1,0.4,0.2l0.8,1.8     c5.7-1.3,8.7-7.9,10.2-13.2C244,98.5,233.2,92.1,216.5,89z"/></g></g><g><path class="st4" d="M31,105.6c-0.1-0.2-0.3-0.3-0.5-0.4c-2.5-0.5-4.6-0.2-6.3,0.9c-2.5,1.7-3,4.6-3.1,4.7c0,0.2,0,0.5,0.2,0.6    c0.1,0.2,0.4,0.3,0.6,0.3c0,0,0,0,0,0c7.3-0.1,9.1-5.3,9.2-5.5C31.2,106,31.2,105.8,31,105.6z"/></g><g><path d="M48.3,99.4c0,0,0.6-6.1-1.2-7.4c-1.7-1.3-2.1,1-2.1,1l-0.8,1.7L48.3,99.4z"/></g><g><path class="st5" d="M43.9,94.4c0,0,1.1-4.2,3.5-2.8s1.3,9.1,1.3,9.1L43.9,94.4z"/></g><g><path class="st6" d="M75.5,94.6c-2.6-1.1-4.5-3.6-5.9-6.1c-0.2,0-0.5,0.1-0.7,0.1l-3.1,0.2c2.4,3.2,6.8,8,11.7,10.1    c6.8,2.9,9.2,6.7,9.8,7.8C86.4,105.1,82.2,97.4,75.5,94.6z"/></g><g><path class="st6" d="M75.5,166.5c-5.4-3.6-9.5,1.9-9.5,1.9s4.9-2.5,9.5,3.2c1.5,1.9,3.6,3.1,5.7,3.8l5.8-7.1c0,0,0,0,0,0    c0,0,0.1-0.1,0.1-0.1C83.3,168.6,78.5,168.5,75.5,166.5z"/></g><g><path class="st6" d="M115.1,103.6c0,0-2.7,14.7,0,26c2.7,11.3,2.7,11.3,2.7,11.3l3.1,6.2c0,0,1.9-8.8,0-12.3    c-1.9-3.5-1.9-3.5-1.9-3.5s-2.1-9.6-0.9-23.5c1.3-13.8-8-19-8-19s3.5,4.4,4.2,9.6C115.1,103.6,115.1,103.6,115.1,103.6z"/></g><g><path class="st6" d="M102.4,97.1c0,0-1.4-4.6-4.8-10.4l-8,0.4c1.5,2.5,3.8,6.1,6.6,10c5.8,8,2.3,33.4-4.4,39.2    C91.8,136.3,107.4,126.4,102.4,97.1z"/></g><g><path class="st6" d="M203.3,110.9c-1.6-6.6-6.1-17.1-9.2-24l-1.7,0c0.9,3.6,2.2,8.8,4.2,15.9c4.5,15.6,5,41.5-6.5,54.4l1,4.4    c3.3-4.6,6.3-9,8.4-12.5C204.8,140,205.8,121.3,203.3,110.9z"/></g><g><path class="st6" d="M214.2,176.7c-4,1.3-7.6,3.4-10.5,5.3l1.2,2.5c1.9-1.3,4-2.7,7.2-3.2c6.2-1,10-2.6,11.9-3.7l0.5-8.3    C222.8,171.3,219.3,175,214.2,176.7z"/></g><g><path class="st7" d="M223.7,177.7"/></g><g><path class="st6" d="M202.9,164.5c-3.7,2.3-5.7,4.1-6.9,5.7l3.8,4.7c0.1-1.5,1.7-4.1,8.8-10.4c0,0,7.2-5.3,7.2-13.2    C215.7,151.3,211.1,159.3,202.9,164.5z"/></g><g><path class="st6" d="M218.7,94.6c-0.9-1.9-1.8-4-2.5-5.6l-8-1.1c1.8,3.7,4.5,8.5,7.5,12.5c6.7,8.7,0,35.9,0,35.9    S230.9,120.6,218.7,94.6z"/></g><g><path class="st7" d="M133.1,90"/></g><g><path class="st6" d="M136,97.7c-1.3-2.6-2.1-5.6-2.5-8l-5.8-0.6c0.4,3.5,1.1,7.4,1.8,8.5c1.6,2.6,5.7,12.4,8.8,25.7    C138.3,123.4,140.3,106.3,136,97.7z"/></g><g><path class="st6" d="M133.5,129.6c0,0-0.3,3.6,1.7,10.3c1.4,4.6-1.8,14.5-4,20.3l9.1-1.5c0.1,0,0.1-0.1,0.2-0.1l0.4,0    c1.4-4.1,2.4-9.5,0.5-14.3C137.8,135.2,133.5,129.6,133.5,129.6z"/></g><g><path class="st6" d="M172.6,98.4c-1.5-3.4-2.2-7.2-2.5-10.3l-6.4,0.5c0.4,4.3,1.8,9.9,5.4,14.6c6.2,8.1,7.1,11.6,7.2,12.7    C176.2,114.1,175.8,105.7,172.6,98.4z"/></g><g><g><path class="st6" d="M149.9,94.6c-1.9-5.2,0,3.1,0,3.1s2.7,8.8,2.2,14.9c-0.5,6.2,0.5,11.7,8.2,26.9c0,0,5.1-18.2,3.1-24.3     C161.4,109.1,151.8,99.8,149.9,94.6z M158.9,126.6c0,0-2.2-6.5-2.4-9.1c-0.3-2.6,0-6.3,0-6.3s1.4,1.2,2.4,4.4     C160,118.8,158.9,126.6,158.9,126.6z"/></g></g><g><path class="st6" d="M247.9,106.5c0,0,0.9,1.3,1.5,3.6c0,0,0.1,9-2.8,11.2c-2.9,2.2-5.6,5.4-5.6,5.4l-2.7-5.9c0,0,1.8-0.3,3.7-2    S246.7,114.5,247.9,106.5z"/></g><g><path class="st6" d="M247.2,140.3l1.8,3.7c0,0,3.8-1.1,5.2-2.6c1.4-1.6,3.9-6,3.9-6l-1.6-4.4c0,0-0.8,6-6.7,8.1L247.2,140.3z"/></g><g><path class="st6" d="M260.9,160.9c0,0,1.6,1.4,3.5,2.1c0,0,3.2-1.2,4.5-4.2c1.3-3,0.8-6.2,0.8-6.2s-3-1-3.8-1.8    c-0.8-0.8-0.9-1.1-0.9-1.1l0.1,0.3c0,0,0.4,4.8-0.9,6.3C262.8,157.8,260.9,160.9,260.9,160.9z"/></g><g><g><path class="st2" d="M294.6,140.1c-3.4-1-4.9,0.3-7.1,2c-2.2,1.7-2.6,1.9-2.6,1.9c0,0,0,0,0,0c0,0.3-0.1,0.6-0.2,1     c-0.3,1.3-0.8,2.4-1.4,3.3c0,0,0,0,0,0c0,0,0,0,0,0l-2.4,2.4c1.6,3.1,3.3,7.4,3.2,11.3l3.6-2.7c3.8-3.6,6.2-8.3,7-13.7     C295.1,143.7,295,141.8,294.6,140.1z"/></g><g><path class="st6" d="M284.6,141.4c2.3-2.2,5.3-3.5,8.8-4l-1.4-1.8c-1.2-1.6-2.7-2.9-4.4-3.9c-4.2-2.2-8.8-2.6-10.1-1.7     c-1.4,0.9-2.3,1.7-2.3,2.4c0,0.7,0.7,1.7,2.4,3.1c1,0.9,2.2,1.5,3.3,2.1c0.3,0.2,0.6,0.3,0.8,0.5     C281.6,138.1,284,139.6,284.6,141.4"/></g><g><path class="st6" d="M287.5,142.1c2.2-1.7,3.7-3,7.1-2c-0.2-0.7-0.5-1.9-1.2-2.8c-3.6,0.5-6.6,1.7-8.9,3.9c0.6,1,0.5,2.1,0.4,2.7     c0,0,0,0,0,0C285,144,285.3,143.8,287.5,142.1z"/></g></g><g><path class="st6" d="M284.2,150.1c-1.3-1.2-1.8-0.9-1.8-0.9s-0.4,0.9-3.1,2.5c0,0,2.6,3.7,2.9,5.8c0.3,2.1,0.3,2.1,0.3,2.1    l-0.1,3.5c3.1-1.9,4.6-3.3,4.6-3.3S285.5,151.3,284.2,150.1z"/></g><g><path class="st6" d="M29.2,95.5c0,0,4.5,0.8,6,6.6c0,0,2.5-4.9-0.7-8.6L29.2,95.5z"/></g><g><path class="st6" d="M43,106.1c0,0-3.4-1.5-4.2,1.3c-0.5,1.9-2.9,5.2-1.7,7.2c1.2,2,1.8,7.8,0,10.4c0,0,3.9-4,3.6-4.6    c-0.2-0.6,0.6-4.9-0.3-6.4S43.1,108.5,43,106.1z"/></g><g><path class="st6" d="M66.1,128.2c0,0,1.5,10.9,5.8,12.8c4.2,1.9,5.5,1.4,10.6,5.6c5.1,4.2,7,4,7,4s-2.9,1.9-9.5-1.5    c-6.5-3.5-7.7-1.7-10.6-2.6c-2.9-0.9-4.2-3.7-4.2-3.7S64.7,131.6,66.1,128.2z"/></g><g><path class="st8" d="M68.3,122.6c-2.1-1.2-3.6-0.9-3.6-0.9c-3.7,0.3-25.9,2.1-31.9,0.5c-6.5-1.8-12.8,0.4-16.7,3.6    c-3.4,2.8-7.7,2.8-8.7,2.7c0.9,1.1,2.1,2.3,3.6,3.6c0.1,0.1,0.5,0.2,1,0.3l0,0c0,0,3.7,1.2,6.1-0.8c2.4-2,8.6-6.1,11.5-3.8    c2.9,2.4,3.3,2.5,1.5,4c-1.8,1.5-8.3,10.5-8.3,10.5c0.9,0.9,2.3,1.6,4.2,1.6c3.5,0,5.3-2.4,7.1-4.9c1.6-2.2,3.2-4.5,6.1-5.4    c2.2-0.7,4.2-1.7,6.1-2.6c0.6-0.3,1.3-0.6,1.9-0.9c0.1,0,0.1,0,0.2,0c0.9,0.1,1.5,0.3,2.1,0.5c6.1,2,12.9,8.1,14.8,10    c0-0.8,0-1.6,0-2.5c0.1-1.9,0.1-4.8,0.1-6.2C65.3,129.4,68.3,122.6,68.3,122.6z"/></g><g><g><path class="st3" d="M23.9,134.9l0.5,1.4c0,0,0.1,0,0.1,0c2.7-2.9,5.2-4.7,6.1-5.3c0.1-0.1,0.2-0.2,0.2-0.4     c-0.2-0.9-0.7-1.7-1.6-2.2c-1.6-0.9-4.9,0.3-6.8,1.1l2.6,3.2L23.9,134.9z"/></g><g><path class="st6" d="M29.8,127c-2.9-2.4-9.4,0.9-11.7,2.9c-2.4,2-6.1,2.3-6.1,2.3l0,0c1.5,0.5,4.3,1,6.4-0.3c0,0,0.1-0.1,0.1-0.1     l1.9-0.8l1.8-1.6c2-0.9,5.4-2.1,7-1.2c0.8,0.5,1.4,1.2,1.6,2.2c0,0.2,0,0.3-0.2,0.4c-0.9,0.7-3.4,2.5-6.1,5.3     c0,0-0.1,0.1-0.2,0.1l-1.2,0.9l-0.8,1.3c0,0,0,0,0,0c-0.8,0.9-1.1,1.3-1.2,1.5c0.3,0.5,0.8,1.3,1.5,2.1c0,0,7-8.2,8.8-9.7     C33.3,131,32.7,129.4,29.8,127z"/></g><g><path class="st6" d="M22.2,129.6l-3.7,2.4l0,0c0.1,0,0.2,0,0.3,0l4.8,2.4L22.2,129.6z"/></g><g><path class="st6" d="M24.4,136.3c-0.1,0-0.1,0-0.2,0l-2.8-0.3l1,2.1c0.1,0.1,0,0.3-0.1,0.4L24.4,136.3L24.4,136.3z"/></g></g></g></svg>